# xmcd CD database file
#
# Track frame offsets:
#	150
#	11644
#	24318
#	40556
#	53494
#	67743
#	81607
#	92570
#	105053
#	122824
#	135381
#	148395
#	161504
#	177642
#	195801
#	207565
#
# Disc length: 2997 seconds
#
# Revision: 0
# Processed by: cddbd v1.5.1PL0 Copyright (c) Steve Scherf et al.
# Submitted via: NeoAudio 9.9.9
#
DISCID=cb0bb310
DTITLE=line danc hits ted 99016 - line dance hits ted 99016
DYEAR=1900
DGENRE=Country
TTITLE0=memories of yesterday - hauted heart
TTITLE1=my guitar and my bottle - freeze
TTITLE2=set me free - swiss cheese
TTITLE3=it's true love - trueblue
TTITLE4=start brand nwe - just friends
TTITLE5=lavender blue - desporado wrap
TTITLE6=rock 'n roll memorie - applejack
TTITLE7=now l know - that's my story
TTITLE8=l will love you - bremer
TTITLE9=lovin arms - lomg horn
TTITLE10=colour - texas swing
TTITLE11=why can love hurt bso much - shadow
TTITLE12=fly away - snake rivershuffle
TTITLE13=mama - frontier cha cha
TTITLE14=your lovin - horse shoe
TTITLE15=l am l said - sway
EXTD=
EXTT0=
EXTT1=
EXTT2=
EXTT3=
EXTT4=
EXTT5=
EXTT6=
EXTT7=
EXTT8=
EXTT9=
EXTT10=
EXTT11=
EXTT12=
EXTT13=
EXTT14=
EXTT15=
PLAYORDER=
